<svg id="Capa_1" enable-background="new 0 0 512 512" height="512" viewBox="0 0 512 512" width="512" xmlns="http://www.w3.org/2000/svg"><g><g><path d="m476.844 160.79c-39.566-82.12-123.587-138.79-220.844-138.79s-181.278 56.67-220.844 138.79z" fill="#c8effe"/><path d="m62.128 416.79c44.811 57.913 114.981 95.21 193.872 95.21s149.061-37.297 193.872-95.21z" fill="#c8effe"/><path d="m62.128 416.79c13.076 16.899 28.324 32.026 45.306 45h193.566c11.046 0 20-8.954 20-20v-25z" fill="#99e6fc"/></g><path d="m476.824 160.79c-8.484-17.603-19-34.043-31.26-49h-173.564c-11.046 0-20 8.954-20 20v29z" fill="#99e6fc"/><g fill="#fff"><path d="m272.05 66.865 77.786 82.935c2.769-4.282 6.859-7.63 11.693-9.46l-77.947-83.106c-3.092 3.986-7.024 7.285-11.532 9.631z"/><path d="m228.418 57.233-77.947 83.106c4.834 1.83 8.924 5.178 11.693 9.46l77.786-82.935c-4.508-2.345-8.44-5.644-11.532-9.631z"/></g><g><path d="m166.913 160.79c-1.02-12.871-11.78-23-24.913-23s-23.893 10.129-24.913 23z" fill="#8379c1"/><path d="m141.086 160.79c.682-8.608 5.719-15.99 12.914-19.935-3.562-1.953-7.651-3.065-12-3.065-13.133 0-23.893 10.129-24.913 23z" fill="#6e61b6"/><path d="m394.913 160.79c-1.02-12.871-11.78-23-24.913-23s-23.893 10.129-24.913 23z" fill="#8379c1"/><path d="m369.086 160.79c.682-8.608 5.719-15.99 12.914-19.935-3.562-1.953-7.651-3.065-12-3.065-13.133 0-23.893 10.129-24.913 23z" fill="#6e61b6"/></g><g><path d="m492 417.79h-472c-11.046 0-20-8.954-20-20v-218c0-11.046 8.954-20 20-20h472c11.046 0 20 8.954 20 20v218c0 11.046-8.954 20-20 20z" fill="#fed402"/></g><path d="m64 397.79v-218c0-11.046 8.954-20 20-20h-64c-11.046 0-20 8.954-20 20v218c0 11.046 8.954 20 20 20h64c-11.046 0-20-8.954-20-20z" fill="#fac600"/><g><circle cx="256" cy="35.895" fill="#8379c1" r="35.895"/></g><g><path d="m254 35.895c0-13.694 7.671-25.594 18.948-31.646-5.049-2.709-10.818-4.249-16.948-4.249-19.824 0-35.895 16.071-35.895 35.895s16.071 35.895 35.895 35.895c6.13 0 11.899-1.54 16.948-4.249-11.277-6.052-18.948-17.952-18.948-31.646z" fill="#6e61b6"/></g><g><g fill="#fff"><path d="m235.271 257.001c4.143 0 7.5-3.357 7.5-7.5s-3.357-7.5-7.5-7.5h-45.593c-4.143 0-7.5 3.357-7.5 7.5v78.578c0 4.143 3.357 7.5 7.5 7.5h45.593c4.143 0 7.5-3.357 7.5-7.5s-3.357-7.5-7.5-7.5h-38.093v-24.289h38.093c4.143 0 7.5-3.357 7.5-7.5s-3.357-7.5-7.5-7.5h-38.093v-24.289z"/><path d="m41 257.001h16.416v71.078c0 4.143 3.357 7.5 7.5 7.5s7.5-3.357 7.5-7.5v-71.078h16.416c4.143 0 7.5-3.357 7.5-7.5s-3.357-7.5-7.5-7.5h-47.832c-4.143 0-7.5 3.357-7.5 7.5s3.357 7.5 7.5 7.5z"/><path d="m160.933 335.579c4.143 0 7.5-3.357 7.5-7.5v-78.578c0-4.143-3.357-7.5-7.5-7.5s-7.5 3.357-7.5 7.5v31.789h-30.594v-31.789c0-4.143-3.357-7.5-7.5-7.5s-7.5 3.357-7.5 7.5v78.578c0 4.143 3.357 7.5 7.5 7.5s7.5-3.357 7.5-7.5v-31.789h30.594v31.789c0 4.143 3.357 7.5 7.5 7.5z"/><path d="m324.794 257.001c4.143 0 7.5-3.357 7.5-7.5s-3.357-7.5-7.5-7.5h-45.594c-4.143 0-7.5 3.357-7.5 7.5v78.578c0 4.143 3.357 7.5 7.5 7.5h45.594c4.143 0 7.5-3.357 7.5-7.5s-3.357-7.5-7.5-7.5h-38.094v-24.289h38.094c4.143 0 7.5-3.357 7.5-7.5s-3.357-7.5-7.5-7.5h-38.094v-24.289z"/><path d="m440.616 242.001h-15.209c-4.143 0-7.5 3.357-7.5 7.5v78.578c0 4.143 3.357 7.5 7.5 7.5h15.209c20.89 0 37.884-16.995 37.884-37.885v-17.809c0-20.889-16.994-37.884-37.884-37.884zm22.884 55.693c0 12.619-10.266 22.885-22.884 22.885h-7.709v-63.578h7.709c12.618 0 22.884 10.266 22.884 22.885z"/><path d="m390.396 249.502v50.706l-31.605-54.47c-1.704-2.935-5.164-4.363-8.437-3.479-3.274.881-5.551 3.851-5.551 7.242v78.576c0 4.143 3.357 7.5 7.5 7.5s7.5-3.357 7.5-7.5v-50.706l31.605 54.47.005-.003c1.299 2.234 3.712 3.739 6.482 3.739 4.143 0 7.5-3.357 7.5-7.5v-78.576c0-4.143-3.357-7.5-7.5-7.5s-7.499 3.358-7.499 7.501z"/></g><path d="m41 206.29h430c4.143 0 7.5-3.357 7.5-7.5s-3.357-7.5-7.5-7.5h-430c-4.143 0-7.5 3.357-7.5 7.5s3.357 7.5 7.5 7.5z" fill="#fef0ae"/><path d="m471 371.29h-430c-4.143 0-7.5 3.357-7.5 7.5s3.357 7.5 7.5 7.5h430c4.143 0 7.5-3.357 7.5-7.5s-3.357-7.5-7.5-7.5z" fill="#fef0ae"/></g></g></svg>