<svg id="Capa_1" enable-background="new 0 0 512 512" height="512" viewBox="0 0 512 512" width="512" xmlns="http://www.w3.org/2000/svg"><circle cx="256" cy="256" fill="#ffc200" r="256"/><path d="m512 256c0-2.269-.03-4.53-.088-6.784l-143.501-143.5-46.118 165.648-173.635-173.636v390.729l.035.035c32.637 15.089 68.989 23.508 107.307 23.508 141.385 0 256-114.615 256-256z" fill="#ffa300"/><path d="m432.525 375.971v-204.448c-42.743 11.939-85.486 27.287-128.229 2.869v204.448c42.743 24.418 85.486 9.071 128.229-2.869z" fill="#cdd2e1"/><path d="m304.296 174.393v204.448c18.234 10.417 36.469 13.59 54.704 12.884v-204.448c-18.235.706-36.469-2.468-54.704-12.884z" fill="#23272b"/><path d="m304.296 244.499v64.236c42.743 24.417 85.486 9.07 128.229-2.869v-64.236c-42.743 11.939-85.486 27.286-128.229 2.869z" fill="#23272b"/><path d="m368.411 310.164s-1.744 25.768-34.387 30.179-29.727 38.498-29.727 38.498v-113.929z" fill="#7e8596"/><path d="m368.411 310.164c-78.736-44.979-157.471 44.979-236.207 0 0-68.15 0-136.299 0-204.448 78.736 44.979 157.471-44.979 236.207 0z" fill="#fff"/><path d="m255.556 104.221v204.448c37.618-10.682 75.237-19.995 112.855 1.495 0-68.149 0-136.299 0-204.448-37.619-21.49-75.237-12.177-112.855-1.495z" fill="#e9edf5"/><path d="m288 236.598v63.896c26.804-5.316 53.607-5.642 80.411 9.67 0-21.299 0-42.598 0-63.897-26.804-15.311-53.607-14.986-80.411-9.669z" fill="#414952"/><path d="m288 96.046v63.896c26.804-5.316 53.607-5.642 80.411 9.67 0-21.299 0-42.598 0-63.896-26.804-15.312-53.607-14.987-80.411-9.67z" fill="#414952"/><g fill="#707789"><path d="m132.204 246.267v63.897c28.043 16.02 56.086 14.922 84.13 8.9v-63.896c-28.044 6.022-56.087 7.119-84.13-8.901z"/><path d="m216.333 178.513v-63.896c-28.043 6.021-56.086 7.119-84.13-8.901v63.896c28.044 16.02 56.087 14.922 84.13 8.901z"/><path d="m216.333 178.513v76.656c23.889-5.129 47.778-13.832 71.667-18.571v-76.655c-23.889 4.738-47.778 13.44-71.667 18.57z"/></g><path d="m288 159.942c-10.815 2.145-21.63 5.104-32.444 8.175v76.656c10.815-3.071 21.63-6.029 32.444-8.175z" fill="#555a66"/><path d="m110.272 466.48c12.081 8.38 24.915 15.747 38.386 21.978v-390.73h-38.386z" fill="#333940"/><path d="m148.658 97.728h-18.102v381.447c5.895 3.321 11.928 6.427 18.102 9.282z" fill="#0e1011"/></svg>