<svg id="Capa_1" enable-background="new 0 0 512 512" height="512" viewBox="0 0 512 512" width="512" xmlns="http://www.w3.org/2000/svg"><g><g><path d="m78.5 132.5 17.5 10 17.5-10v-83c0-23.1-18.9-42-42-42h-10c-2.761 0-5 2.239-5 5v25.5c0 2.761 2.239 5 5 5h11c3.435 0 6.229 2.794 6.229 6.229z" fill="#7e8a94"/><path d="m78.5 132.5.23-83.27c0-3.44-2.8-6.23-6.23-6.23h15c3.43 0 6.23 2.79 6.23 6.23l-.23 83.27z" fill="#5f6c76"/><path d="m113.5 132.5h-17.5-17.5c-5.523 0-10 4.477-10 10v76l21.5 10 23.5-10 10-43z" fill="#5f6c76"/><path d="m68.5 218.5v-76c0-5.52 4.48-10 10-10h20c-5.52 0-10 4.48-10 10v76z" fill="#4f5a61"/><path d="m113.5 218.5h-39c-11.046 0-20 8.954-20 20v73l59-10 10-41z" fill="#4f5a61"/><path d="m433.5 132.5-18.25 10-16.75-10v-83c0-23.1 18.9-42 42-42h10c2.761 0 5 2.239 5 5v25.5c0 2.761-2.239 5-5 5h-11c-3.435 0-6.229 2.794-6.229 6.229z" fill="#7e8a94"/><path d="m397.5 132.5h35c5.523 0 10 4.477 10 10v76l-20.5 10-23.5-10-10.5-42.994z" fill="#5f6c76"/><path d="m398.5 218.5h39c11.046 0 20 8.954 20 20v73l-59-10-10-41.5z" fill="#4f5a61"/><path d="m113.5 92.5h285v191.5h-285z" fill="#d82f3d"/><path d="m113.5 264h285v20h-285z" fill="#c42330"/><path d="m135.5 454.5v30c0 11.046-8.954 20-20 20h-36c-11.046 0-20-8.954-20-20v-30z" fill="#5f6c76"/><path d="m452.5 454.5v30c0 11.046-8.954 20-20 20h-36c-11.046 0-20-8.954-20-20v-30z" fill="#5f6c76"/><path d="m99.5 504.5h-20c-11.05 0-20-8.95-20-20v-30h20v30c0 11.05 8.95 20 20 20z" fill="#4f5a61"/><path d="m416.5 504.5h-20c-11.05 0-20-8.95-20-20v-30h20v30c0 11.05 8.95 20 20 20z" fill="#4f5a61"/><path d="m361.5 282.383h51c33.137 0 60 26.863 60 60v66.117h-111l-10-63.059z" fill="#d82f3d"/><path d="m477.842 457.323-101.342 17.177h-10l-15-3-20 3h-151l-15-3-20 3h-10l-101.342-17.177c-9.619-1.63-16.658-9.963-16.658-19.719v-19.104c0-5.523 4.477-10 10-10h123l106-14.989 105 14.989h123c5.523 0 10 4.477 10 10v19.105c0 9.756-7.039 18.088-16.658 19.718z" fill="#d82f3d"/><path d="m494.49 418.02c-.19 9.58-7.17 17.69-16.65 19.3l-100.925 17.11c-.276.047-.556.07-.836.07h-240.158c-.28 0-.56-.024-.836-.07l-93.421-15.837c-2.405-.408-4.164-2.491-4.164-4.93v-15.163c0-5.52 4.48-10 10-10h-20c-5.4 0-9.793 4.29-9.982 9.644-.001-.042-.007-.082-.008-.124-.01.16-.01.32-.01.48v19.1c0 9.76 7.04 18.09 16.66 19.72l100.925 17.11c.276.047.556.07.836.07h9.579l18.181-3 16.819 3h151l17.926-3 17.074 3h9.579c.28 0 .56-.024.836-.07l100.925-17.11c9.62-1.63 16.66-9.96 16.66-19.72v-19.1c0-.16 0-.32-.01-.48z" fill="#c42330"/><path d="m150.5 282.5-50.406-.4c-33.368-.33-60.594 26.628-60.594 59.997v66.403h111z" fill="#d82f3d"/><path d="m110.21 282.25c-31.09 2.19-55.71 28.12-55.71 59.85v66.4h-15v-66.4c0-32.59 25.97-59.07 58.26-59.97z" fill="#c42330"/><path d="m371.5 328.5h61c5.523 0 10 4.477 10 10v25c0 5.523-4.477 10-10 10h-61l-10-22.5z" fill="#f3d333"/><path d="m401.5 373.5h-30l-10-22.5 10-22.5h30c-5.52 0-10 4.48-10 10v25c0 5.52 4.48 10 10 10z" fill="#e8a42b"/><path d="m140.5 373.5h-61c-5.523 0-10-4.477-10-10v-25c0-5.523 4.477-10 10-10h61l10 22.5z" fill="#f3d333"/><path d="m99.5 373.5h-20c-5.52 0-10-4.48-10-10v-25c0-5.52 4.48-10 10-10h20c-5.52 0-10 4.48-10 10v25c0 5.52 4.48 10 10 10z" fill="#e8a42b"/><path d="m361.5 198.5h-211c-5.523 0-10-4.477-10-10v-56c0-5.523 4.477-10 10-10h211c5.523 0 10 4.477 10 10v56c0 5.523-4.477 10-10 10z" fill="#f5faff"/><path d="m371.5 188.5v-5h-206c-5.52 0-10-4.48-10-10v-51h-5c-5.52 0-10 4.48-10 10v56c0 5.52 4.48 10 10 10h211c5.52 0 10-4.48 10-10z" fill="#d7e1f2"/><path d="m398.5 92.5-20.581-58.313c-5.644-15.992-20.76-26.687-37.72-26.687h-168.398c-16.959 0-32.075 10.695-37.72 26.687l-20.581 58.313z" fill="#d82f3d"/><path d="m398.5 92.5h-285l7.06-20h270.88z" fill="#c42330"/><path d="m328.5 7.5v20c0 11.046-8.954 20-20 20h-105c-11.046 0-20-8.954-20-20v-20z" fill="#c42330"/><path d="m175.5 439.5h-25c-2.761 0-5 2.239-5 5v30h35v-30c0-2.761-2.239-5-5-5z" fill="#f3d333"/><path d="m361.5 439.5h-25c-2.761 0-5 2.239-5 5v30h35v-30c0-2.761-2.239-5-5-5z" fill="#f3d333"/><path d="m165.5 439.5c-2.76 0-5 2.24-5 5v30h-15v-30c0-2.76 2.24-5 5-5z" fill="#e8a42b"/><path d="m351.5 439.5c-2.76 0-5 2.24-5 5v30h-15v-30c0-2.76 2.24-5 5-5z" fill="#e8a42b"/><path d="m140.5 403.5v-125c0-27.614 22.386-50 50-50h131c27.614 0 50 22.386 50 50v125c0 2.761-2.239 5-5 5h-221c-2.761 0-5-2.239-5-5z" fill="#c42330"/><path d="m341.5 353.5v-70c0-13.807-11.193-25-25-25h-121c-13.807 0-25 11.193-25 25v70c0 13.807 11.193 25 25 25h121c13.807 0 25-11.193 25-25z" fill="#5f6c76"/><g fill="#4f5a61"><path d="m312.5 296h-112c-4.142 0-7.5-3.357-7.5-7.5s3.358-7.5 7.5-7.5h112c4.142 0 7.5 3.357 7.5 7.5s-3.358 7.5-7.5 7.5z"/><path d="m312.5 326h-112c-4.142 0-7.5-3.357-7.5-7.5s3.358-7.5 7.5-7.5h112c4.142 0 7.5 3.357 7.5 7.5s-3.358 7.5-7.5 7.5z"/><path d="m312.5 356h-112c-4.142 0-7.5-3.357-7.5-7.5s3.358-7.5 7.5-7.5h112c4.142 0 7.5 3.357 7.5 7.5s-3.358 7.5-7.5 7.5z"/></g></g><g><path d="m484.5 401h-4.5v-58.617c0-15.453-5.232-29.699-14-41.089v-62.794c0-10.664-6.105-19.922-15-24.482v-71.518c0-6.969-4.105-12.982-10.016-15.795l-.209-76.205h14.725c4.142 0 7.5-3.358 7.5-7.5v-35.5c0-4.142-3.358-7.5-7.5-7.5h-16c-26.502 0-48.095 21.811-48.482 48.767l-6.027-17.076c-6.69-18.956-24.691-31.691-44.792-31.691h-168.398c-20.101 0-38.102 12.735-44.792 31.691l-6.027 17.076c-.387-26.956-21.98-48.767-48.482-48.767h-16c-4.142 0-7.5 3.358-7.5 7.5v35.5c0 4.142 3.358 7.5 7.5 7.5h14.725l-.209 76.205c-5.911 2.813-10.016 8.826-10.016 15.795v72.056c-8.349 4.726-14 13.685-14 23.944v2.5c0 4.142 3.358 7.5 7.5 7.5s7.5-3.358 7.5-7.5v-2.5c0-6.893 5.607-12.5 12.5-12.5h31.5v48.657l-5.832-.058c-13.788-.115-26.97 3.854-38.168 11.364v-9.963c0-4.143-3.358-7.5-7.5-7.5s-7.5 3.357-7.5 7.5v23.678c-9.713 11.971-15 26.775-15 42.419v58.903h-4.5c-9.649 0-17.5 7.851-17.5 17.5v19.104c0 13.462 9.633 24.864 22.904 27.113l19.096 3.237v16.546c0 15.163 12.336 27.5 27.5 27.5h36c15.164 0 27.5-12.337 27.5-27.5v-2.5h2.5 35 151 35 2.5v2.5c0 15.163 12.336 27.5 27.5 27.5h36c15.164 0 27.5-12.337 27.5-27.5v-16.546l19.095-3.237c13.272-2.248 22.905-13.651 22.905-27.113v-19.104c0-9.649-7.851-17.5-17.5-17.5zm-105.5 0v-20h53.5c9.649 0 17.5-7.851 17.5-17.5v-25c0-9.649-7.851-17.5-17.5-17.5h-53.5v-31.117h33.5c28.949 0 52.5 23.552 52.5 52.5v58.617zm-231 0v-122.5c0-23.435 19.065-42.5 42.5-42.5h131c23.435 0 42.5 19.065 42.5 42.5v122.5zm-15-35h-53.5c-1.378 0-2.5-1.121-2.5-2.5v-25c0-1.379 1.122-2.5 2.5-2.5h53.5zm246-30h53.5c1.378 0 2.5 1.121 2.5 2.5v25c0 1.379-1.122 2.5-2.5 2.5h-53.5zm57-193.5v68.5h-30v-71h27.5c1.378 0 2.5 1.122 2.5 2.5zm-30 83.5h32.5c6.893 0 12.5 5.607 12.5 12.5v48.486c-10.929-7.619-24.197-12.103-38.5-12.103h-6.5zm0-176.5c0-19.023 15.028-34.5 33.5-34.5h8.5v20.5h-8.5c-7.57 0-13.729 6.159-13.729 13.749l.208 75.751h-19.979v-32.5zm-264.847-12.817c4.578-12.969 16.894-21.683 30.648-21.683h4.199v12.5c0 15.164 12.336 27.5 27.5 27.5h9.5c4.142 0 7.5-3.358 7.5-7.5s-3.358-7.5-7.5-7.5h-9.5c-6.893 0-12.5-5.607-12.5-12.5v-12.5h130v12.5c0 6.893-5.607 12.5-12.5 12.5h-60.5c-4.142 0-7.5 3.358-7.5 7.5s3.358 7.5 7.5 7.5h60.5c15.164 0 27.5-12.336 27.5-27.5v-12.5h4.199c13.753 0 26.07 8.714 30.647 21.683l17.054 48.317h-263.8zm-77.153-1.183v-20.5h8.5c18.472 0 33.5 15.477 33.5 34.5v43 32.5h-19.979l.208-75.771c0-7.57-6.159-13.729-13.729-13.729zm12 175.5v-68.5c0-1.378 1.122-2.5 2.5-2.5h27.5v71zm45-78.5v-32.5h270v32.5 142.383h-12.125c-1.875-30.026-26.885-53.883-57.375-53.883h-131c-30.504 0-55.525 23.88-57.378 53.926l-12.122-.12zm-74 209.597c0-14.121 5.526-27.37 15.561-37.306 10.035-9.937 23.337-15.355 37.459-15.191l32.98.327v31.073h-53.5c-9.649 0-17.5 7.851-17.5 17.5v25c0 9.649 7.851 17.5 17.5 17.5h53.5v20h-86zm68.5 154.903h-36c-6.893 0-12.5-5.607-12.5-12.5v-14.003l61 10.339v3.664c0 6.893-5.607 12.5-12.5 12.5zm37.5-30v-20h20v20zm186 0v-20h20v20zm106 17.5c0 6.893-5.607 12.5-12.5 12.5h-36c-6.893 0-12.5-5.607-12.5-12.5v-3.664l61-10.339zm42-46.896c0 6.119-4.378 11.302-10.411 12.324l-100.72 17.072h-1.869v-22.5c0-6.893-5.607-12.5-12.5-12.5h-25c-6.893 0-12.5 5.607-12.5 12.5v22.5h-136v-22.5c0-6.893-5.607-12.5-12.5-12.5h-25c-6.893 0-12.5 5.607-12.5 12.5v22.5h-1.869l-100.72-17.071c-6.033-1.023-10.411-6.205-10.411-12.325v-19.104c0-1.379 1.122-2.5 2.5-2.5h457c1.378 0 2.5 1.121 2.5 2.5z"/><path d="m316.5 251h-78.5c-4.142 0-7.5 3.358-7.5 7.5 0 4.143 3.358 7.5 7.5 7.5h78.5c9.649 0 17.5 7.851 17.5 17.5v70c0 9.649-7.851 17.5-17.5 17.5h-121c-9.649 0-17.5-7.851-17.5-17.5v-70c0-9.649 7.851-17.5 17.5-17.5h7.5c4.142 0 7.5-3.357 7.5-7.5 0-4.142-3.358-7.5-7.5-7.5h-7.5c-17.92 0-32.5 14.579-32.5 32.5v70c0 17.921 14.58 32.5 32.5 32.5h121c17.92 0 32.5-14.579 32.5-32.5v-70c0-17.921-14.58-32.5-32.5-32.5z"/><path d="m312.5 281h-112c-4.142 0-7.5 3.357-7.5 7.5s3.358 7.5 7.5 7.5h112c4.142 0 7.5-3.357 7.5-7.5s-3.358-7.5-7.5-7.5z"/><path d="m312.5 311h-112c-4.142 0-7.5 3.357-7.5 7.5s3.358 7.5 7.5 7.5h112c4.142 0 7.5-3.357 7.5-7.5s-3.358-7.5-7.5-7.5z"/><path d="m312.5 341h-112c-4.142 0-7.5 3.357-7.5 7.5s3.358 7.5 7.5 7.5h112c4.142 0 7.5-3.357 7.5-7.5s-3.358-7.5-7.5-7.5z"/><path d="m150.5 206h211c9.649 0 17.5-7.851 17.5-17.5v-2.5c0-4.142-3.358-7.5-7.5-7.5s-7.5 3.358-7.5 7.5v2.5c0 1.378-1.122 2.5-2.5 2.5h-211c-1.378 0-2.5-1.122-2.5-2.5v-56c0-1.378 1.122-2.5 2.5-2.5h211c1.378 0 2.5 1.122 2.5 2.5v18.5c0 4.142 3.358 7.5 7.5 7.5s7.5-3.358 7.5-7.5v-18.5c0-9.649-7.851-17.5-17.5-17.5h-211c-9.649 0-17.5 7.851-17.5 17.5v56c0 9.649 7.851 17.5 17.5 17.5z"/></g></g></svg>