<svg id="Capa_1" enable-background="new 0 0 511.991 511.991" height="512" viewBox="0 0 511.991 511.991" width="512" xmlns="http://www.w3.org/2000/svg"><g><g><path d="m492.957 230.869-209.081-209.082c-.207-.207-.421-.399-.631-.6h-3.242l-242.5 232.707 241.75 239.511 3.992.748c3.573-2.16 6.949-4.773 10.034-7.857l199.679-199.679c15.393-15.395 15.393-40.354-.001-55.748z" fill="#fff1af"/><path d="m273.211 486.295-199.68-199.68c-15.394-15.394-15.394-40.353 0-55.747l209.082-209.081c.207-.207.422-.399.632-.6-15.437-14.78-39.928-14.587-55.115.6l-209.082 209.082c-15.394 15.394-15.394 40.353 0 55.747l199.679 199.68c17.502 17.502 44.245 20.115 64.517 7.857-3.573-2.161-6.949-4.774-10.033-7.858z" fill="#ffe559"/><path d="m460.105 249.092-176.86-176.86h-8.492l-181.917 185.438 3.333 9.652 178.333 175.167 8.742 2.765 176.861-176.861c5.329-5.331 5.329-13.972 0-19.301z" fill="#ffd500"/><path d="m106.384 268.392c-5.33-5.33-5.33-13.971 0-19.3l176.862-176.86-17.593-17.592c-5.33-5.33-13.971-5.33-19.3 0l-194.453 194.452c-5.33 5.33-5.33 13.971 0 19.3l194.452 194.453c5.33 5.33 13.971 5.33 19.3 0l17.592-17.592z" fill="#fbc700"/></g><g><path d="m185.443 251.888c4.143 0 7.5-3.357 7.5-7.5s-3.357-7.5-7.5-7.5h-33.77c-4.143 0-7.5 3.357-7.5 7.5v86.3c0 4.143 3.357 7.5 7.5 7.5h33.77c4.143 0 7.5-3.357 7.5-7.5s-3.357-7.5-7.5-7.5h-26.27v-28.15h24.394c4.143 0 7.5-3.357 7.5-7.5s-3.357-7.5-7.5-7.5h-24.394v-28.149h26.27z"/><path d="m216.859 338.188c4.143 0 7.5-3.357 7.5-7.5v-61.189l42.831 65.303c1.815 2.768 5.234 4.024 8.418 3.073 3.177-.949 5.354-3.871 5.354-7.187v-86.3c0-4.143-3.357-7.5-7.5-7.5s-7.5 3.357-7.5 7.5v61.189l-42.831-65.303c-1.818-2.773-5.24-4.023-8.418-3.073-3.177.949-5.354 3.871-5.354 7.187v86.3c0 4.142 3.357 7.5 7.5 7.5z"/><path d="m306.557 338.188h12.227c27.056 0 49.067-22.012 49.067-49.068v-3.164c0-27.056-22.012-49.067-49.067-49.067h-12.227c-4.143 0-7.5 3.357-7.5 7.5v86.3c0 4.141 3.357 7.499 7.5 7.499zm7.5-86.3h4.727c18.785 0 34.067 15.282 34.067 34.067v3.164c0 18.785-15.282 34.068-34.067 34.068h-4.727z"/><path d="m320.919 164.374c4.143 0 7.5-3.357 7.5-7.5s-3.357-7.5-7.5-7.5h-20.847c-4.143 0-7.5 3.357-7.5 7.5v53.275c0 4.143 3.357 7.5 7.5 7.5h20.847c4.143 0 7.5-3.357 7.5-7.5s-3.357-7.5-7.5-7.5h-13.347v-11.638h12.188c4.143 0 7.5-3.357 7.5-7.5s-3.357-7.5-7.5-7.5h-12.188v-11.638h13.347z"/><path d="m242.816 149.374c-4.143 0-7.5 3.357-7.5 7.5v53.275c0 4.143 3.357 7.5 7.5 7.5s7.5-3.357 7.5-7.5v-19.138h14.654v19.138c0 4.143 3.357 7.5 7.5 7.5s7.5-3.357 7.5-7.5v-53.275c0-4.143-3.357-7.5-7.5-7.5s-7.5 3.357-7.5 7.5v19.138h-14.654v-19.138c0-4.143-3.358-7.5-7.5-7.5z"/><path d="m201.656 217.649c4.143 0 7.5-3.357 7.5-7.5v-45.775h9.359c4.143 0 7.5-3.357 7.5-7.5s-3.357-7.5-7.5-7.5h-33.719c-4.143 0-7.5 3.357-7.5 7.5s3.357 7.5 7.5 7.5h9.359v45.775c.001 4.143 3.358 7.5 7.501 7.5z"/><path d="m370.799 368.315 94.619-94.62c8.244-8.245 8.244-21.661 0-29.907l-194.452-194.452c-8.244-8.244-21.661-8.245-29.907 0l-194.453 194.452c-8.264 8.266-8.265 21.641 0 29.908l194.453 194.452c8.243 8.243 21.661 8.244 29.907 0l75.084-75.085c2.929-2.93 2.929-7.678 0-10.607-2.93-2.928-7.678-2.928-10.607 0l-75.083 75.085c-2.398 2.396-6.298 2.396-8.694 0l-194.453-194.452c-2.402-2.4-2.404-6.291 0-8.693l194.452-194.453c2.398-2.396 6.298-2.396 8.694 0l194.451 194.451c2.396 2.397 2.396 6.298 0 8.694l-94.619 94.619c-2.929 2.93-2.929 7.678 0 10.607s7.677 2.929 10.608.001z"/><path d="m213.433 491.599c23.536 23.534 61.621 23.535 85.158 0l199.68-199.68c18.293-18.294 18.293-48.06 0-66.354l-95.848-95.848c-2.93-2.928-7.678-2.928-10.607 0-2.929 2.93-2.929 7.678 0 10.607l95.848 95.848c12.445 12.444 12.445 32.694 0 45.139l-199.68 199.68c-17.67 17.672-46.271 17.674-63.943 0l-199.681-199.679c-12.474-12.474-12.476-32.664.001-45.139l209.081-209.082c6.028-6.029 14.044-9.35 22.57-9.35 8.525 0 16.541 3.32 22.569 9.35l88.486 88.486c2.93 2.928 7.678 2.928 10.607 0 2.929-2.93 2.929-7.678 0-10.607l-88.486-88.485c-8.862-8.862-20.645-13.743-33.177-13.743-12.533 0-24.315 4.881-33.178 13.742l-209.079 209.081c-18.337 18.337-18.34 48.014-.001 66.354z"/></g></g></svg>